<?xml version="1.0" standalone="no"?>
<!DOCTYPE svg PUBLIC "-//W3C//DTD SVG 20010904//EN"
 "http://www.w3.org/TR/2001/REC-SVG-20010904/DTD/svg10.dtd">
<svg version="1.0" xmlns="http://www.w3.org/2000/svg"
 width="438.000000pt" height="286.000000pt" viewBox="0 0 438.000000 286.000000"
 preserveAspectRatio="xMidYMid meet">
<metadata>
Created by potrace 1.15, written by Peter Selinger 2001-2017
</metadata>
<g transform="translate(0.000000,286.000000) scale(0.100000,-0.100000)"
fill="#000000" stroke="none">
<path d="M3213 2789 c-241 -29 -421 -156 -447 -315 -15 -85 40 -193 130 -256
24 -18 44 -39 44 -47 0 -9 -12 -54 -25 -100 -14 -47 -25 -86 -25 -88 0 -12 39
6 142 62 l118 65 91 -12 c225 -30 467 39 588 167 110 116 104 256 -17 371
-118 114 -380 180 -599 153z m197 -19 c319 -34 515 -193 470 -382 -11 -44 -24
-64 -79 -119 -54 -53 -80 -71 -146 -97 -140 -55 -284 -73 -424 -53 l-82 12
-105 -56 c-58 -31 -109 -55 -114 -53 -4 2 3 39 17 83 l24 80 -28 20 c-187 137
-212 280 -73 415 85 84 203 133 358 149 43 5 79 9 82 9 3 1 48 -3 100 -8z"/>
<path d="M1140 2753 c-302 -32 -521 -180 -520 -350 1 -207 318 -367 694 -350
67 3 154 13 194 22 l73 17 164 -56 c166 -57 185 -62 185 -48 0 4 -34 49 -76
101 l-75 94 47 46 c216 211 0 472 -431 521 -87 10 -183 11 -255 3z m351 -37
c36 -8 101 -28 144 -45 159 -61 246 -148 253 -251 5 -71 -19 -122 -89 -189
l-49 -47 65 -79 c36 -44 65 -83 65 -87 0 -4 -66 16 -147 43 l-148 50 -85 -18
c-64 -13 -125 -18 -245 -17 -138 1 -173 5 -257 27 -274 73 -410 226 -339 383
55 120 247 219 481 248 63 8 284 -4 351 -18z"/>
<path d="M2280 2099 c-113 -22 -226 -114 -283 -228 -30 -62 -32 -72 -32 -176
0 -99 3 -116 27 -168 60 -129 180 -216 331 -242 l38 -6 -3 -107 -3 -107 -152
-3 c-206 -3 -203 -22 2 -22 l155 0 0 -285 0 -284 -81 -148 c-44 -81 -94 -171
-110 -200 -16 -28 -26 -54 -21 -57 5 -3 49 68 98 157 48 89 95 175 105 190
l16 28 128 -178 c71 -97 130 -172 132 -166 4 11 -223 335 -239 341 -5 2 -8
138 -8 302 l0 297 190 8 c251 9 253 27 3 23 l-188 -3 -3 107 -3 107 38 6 c107
18 183 57 249 127 82 87 114 165 114 283 0 266 -235 456 -500 404z m256 -49
c82 -40 150 -108 188 -190 28 -59 31 -74 31 -165 0 -91 -3 -106 -31 -165 -144
-300 -566 -300 -708 0 -55 116 -47 265 20 372 51 80 142 149 233 175 77 22
192 10 267 -27z"/>
<path d="M3455 1600 c-68 -9 -181 -37 -206 -51 -10 -5 -59 -1 -130 11 -62 11
-115 17 -118 14 -3 -2 9 -34 27 -70 l32 -65 -25 -33 c-135 -177 -12 -384 280
-472 78 -23 109 -27 230 -28 228 -2 399 56 507 172 173 185 41 424 -277 501
-96 24 -237 33 -320 21z m297 -35 c40 -8 110 -34 156 -56 268 -135 268 -379
-2 -509 -118 -57 -197 -74 -351 -74 -200 0 -359 51 -464 149 -114 107 -119
204 -19 347 10 14 8 27 -15 73 -31 64 -35 63 91 40 61 -10 90 -11 110 -4 127
49 345 64 494 34z"/>
<path d="M865 1508 c-313 -17 -578 -125 -644 -261 -84 -173 96 -337 453 -415
115 -24 457 -24 572 0 357 78 528 236 442 413 -12 24 -20 46 -17 48 2 2 65 39
139 82 74 43 137 79 139 81 17 16 -37 13 -234 -12 l-226 -27 -77 25 c-167 57
-342 78 -547 66z m330 -33 c99 -16 165 -33 237 -61 46 -18 52 -18 238 5 105
13 193 21 196 18 3 -3 -45 -34 -107 -68 -61 -35 -113 -69 -116 -76 -3 -6 5
-25 18 -42 32 -43 37 -117 11 -167 -51 -100 -198 -180 -417 -229 -96 -22 -393
-31 -493 -16 -324 51 -543 181 -542 323 1 84 67 159 195 223 77 38 227 80 335
94 110 14 348 12 445 -4z"/>
<path d="M1177 1282 c-21 -23 -22 -68 -1 -76 27 -10 44 -7 61 14 17 19 17 19
30 0 8 -11 21 -20 29 -20 8 0 14 -5 14 -11 0 -7 -10 -9 -25 -6 -16 3 -24 0
-22 -7 2 -6 13 -12 25 -14 27 -4 50 31 58 89 6 44 6 44 -25 46 -22 2 -36 -4
-48 -21 l-18 -23 -10 21 c-14 28 -47 32 -68 8z"/>
<path d="M554 1080 c-14 -5 -24 -24 -32 -60 -13 -55 -8 -78 9 -47 6 9 21 17
34 17 15 0 29 9 36 22 l12 22 8 -22 c11 -29 64 -31 79 -3 16 30 12 59 -9 71
-24 12 -48 4 -62 -22 -11 -20 -11 -20 -22 3 -14 27 -25 31 -53 19z"/>
</g>
</svg>
